<?xml version="1.0" encoding="UTF-8" standalone="no"?>
<!-- Creator: CorelDRAW X5 -->

<svg
   xml:space="preserve"
   width="2480px"
   height="3508px"
   style="shape-rendering:geometricPrecision; text-rendering:geometricPrecision; image-rendering:optimizeQuality; fill-rule:evenodd; clip-rule:evenodd"
   viewBox="0 0 2480 3507"
   version="1.1"
   sodipodi:docname="LOGO.svg"
   inkscape:version="1.3 (0e150ed6c4, 2023-07-21)"
   id="svg11"
   xmlns:inkscape="http://www.inkscape.org/namespaces/inkscape"
   xmlns:sodipodi="http://sodipodi.sourceforge.net/DTD/sodipodi-0.dtd"
   xmlns="http://www.w3.org/2000/svg"
   xmlns:svg="http://www.w3.org/2000/svg">&#10; <defs
   id="defs9">&#10;  <style
   type="text/css"
   id="style1">&#10;   <![CDATA[
    .fil2 {fill:#173982}
    .fil0 {fill:#D77331}
    .fil3 {fill:#E5404A}
    .fil5 {fill:url(#id0)}
    .fil4 {fill:url(#id1)}
    .fil1 {fill:url(#id2)}
   ]]>&#10;  </style>&#10;  <linearGradient
   id="id0"
   gradientUnits="userSpaceOnUse"
   x1="1270.01"
   y1="1599.22"
   x2="1270.01"
   y2="1343.15">&#10;   <stop
   offset="0"
   style="stop-color:white"
   id="stop1" />&#10;   <stop
   offset="0.619608"
   style="stop-color:#F7DABF"
   id="stop2" />&#10;   <stop
   offset="1"
   style="stop-color:#EEB57E"
   id="stop3" />&#10;  </linearGradient>&#10;  <linearGradient
   id="id1"
   gradientUnits="userSpaceOnUse"
   x1="1270"
   y1="1599.77"
   x2="1270"
   y2="1192.74">&#10;   <stop
   offset="0"
   style="stop-color:#FFE7B8"
   id="stop4" />&#10;   <stop
   offset="0.74902"
   style="stop-color:#EBAD75"
   id="stop5" />&#10;   <stop
   offset="1"
   style="stop-color:#D77331"
   id="stop6" />&#10;  </linearGradient>&#10;  <linearGradient
   id="id2"
   gradientUnits="userSpaceOnUse"
   x1="1271.04"
   y1="1493.17"
   x2="1271.04"
   y2="1171.4">&#10;   <stop
   offset="0"
   style="stop-color:#F7B941"
   id="stop7" />&#10;   <stop
   offset="0.568627"
   style="stop-color:#E79639"
   id="stop8" />&#10;   <stop
   offset="1"
   style="stop-color:#D77331"
   id="stop9" />&#10;  </linearGradient>&#10; </defs>&#10; <g
   id="Layer_x0020_1"
   inkscape:label="Layer 1">&#10;  <metadata
   id="CorelCorpID_0Corel-Layer" />&#10;  <sodipodi:namedview
   id="namedview1"
   pagecolor="#ffffff"
   bordercolor="#000000"
   borderopacity="0.25"
   inkscape:showpageshadow="2"
   inkscape:pageopacity="0.0"
   inkscape:pagecheckerboard="0"
   inkscape:deskcolor="#d1d1d1"
   inkscape:zoom="0.1767767"
   inkscape:cx="1719.6837"
   inkscape:cy="1349.1597"
   inkscape:window-width="1920"
   inkscape:window-height="1009"
   inkscape:window-x="-8"
   inkscape:window-y="-8"
   inkscape:window-maximized="1"
   inkscape:current-layer="Layer_x0020_1" />&#10;  <path
   id="path1-4"
   class="fil0"
   d="M1317 457c-10,22 -17,46 -7,81 14,47 21,81 4,83 -10,1 -23,7 -19,-15 2,-18 15,-53 -5,-80 -27,-33 -61,-72 10,-143 -213,67 5,222 -50,273 -12,9 -32,34 -20,-42 10,-61 -79,-111 -86,-112 -1,0 63,85 48,124 -20,92 11,93 20,130 0,63 -4,106 -8,109 -16,14 -25,-8 -21,-54 4,-46 3,-47 -10,-28 -8,11 -15,35 -17,54 -3,34 -17,62 -26,52 -2,-3 1,-16 7,-29 18,-36 25,-137 12,-167 -11,-26 -11,-25 -16,41 -4,59 -9,75 -38,128 -30,55 -33,66 -34,120 -1,35 5,77 14,101 9,25 12,49 8,58 -9,22 -26,14 -27,-12 -1,-38 -26,-137 -37,-148 -17,-17 -20,-8 -10,38 5,23 8,52 7,65 -1,13 2,40 8,60 7,27 7,40 0,46 -15,12 -36,-24 -40,-68 -3,-30 -7,-35 -12,-21 -43,133 15,290 97,389 190,220 428,77 483,-160 5,-22 -10,-52 -10,-52 0,0 -9,-25 -1,-62 -13,23 -16,26 -21,45 -11,43 -18,56 -25,26 -2,-9 2,-27 8,-40 17,-36 18,-81 1,-122 -12,-30 -13,-45 -6,-80 8,-40 8,-42 -6,-27 -12,12 -15,27 -15,65 0,32 -2,49 -8,48 -5,0 -11,-9 -12,-20 -3,-18 -4,-18 -12,4 -5,13 -6,35 -3,50 6,31 -4,45 -25,35 -22,-11 -4,-74 44,-158 38,-67 41,-76 40,-120 -1,-42 -28,-138 -38,-139 -2,0 -6,31 -9,69 -4,52 -9,78 -23,102 -16,28 -19,30 -23,16 -7,-26 -19,-4 -20,38 -2,54 -5,65 -19,64 -10,-1 -12,-12 -9,-47 3,-37 11,-57 38,-99 42,-64 46,-99 21,-153 -16,-34 -18,-46 -10,-84 5,-25 6,-45 3,-45 0,0 -1,0 -1,0 -12,45 -37,67 -38,81l0 0c0,3 0,5 -1,9 -2,28 -7,50 -11,50 -3,0 -6,-6 -5,-13 1,-7 -3,-13 -7,-13 -11,-1 -15,42 -6,72 4,15 3,28 -4,38 -21,33 -51,5 -47,-45 2,-20 25,-64 49,-98l0 0c11,-21 30,-46 49,-67 -5,3 -9,6 -14,11 -40,32 -44,24 -9,-19 43,-97 -31,-114 15,-182 -20,19 -30,18 -39,72 -2,14 -15,13 -12,-21 3,-32 -16,-56 -14,-61z" />&#10;  <path
   class="fil1"
   d="M1271 1064c88,0 159,152 165,344 0,1 1,17 0,17 -3,97 -76,175 -166,175 -90,0 -163,-78 -166,-175l0 0c0,-1 0,-1 0,-2 0,-1 0,-2 0,-3 0,-4 0,-8 0,-12 6,-192 78,-344 165,-344z"
   id="path9" />&#10;  <path
   id="path1"
   class="fil2"
   d="m 886,1626 c 47,-40 114,-28 85,48 0,0 -86,205 -131,308 -26,60 -67,143 -33,193 22,33 52,53 83,74 54,35 108,57 162,87 127,54 153,162 127,301 -18,98 -43,185 -96,286 -26,49 -51,104 -98,135 -68,46 -149,76 -230,91 -55,10 -70,-5 -48,-46 61,-110 99,-180 176,-332 21,-41 32,-196 -156,-232 -46,-9 -95,-24 -148,-53 -50,-27 -99,-64 -118,-125 -11,-38 -11,-65 2,-118 79,-319 403.01083,-598.9892 423.01083,-616.9892 0.66667,0.6667 -0.6775,-0.6775 -0.0108,-0.011 z"
   sodipodi:nodetypes="scssssssssssssssss" />&#10;  <path
   id="path2"
   class="fil2"
   d="m 1644,1619 c -47,-40 -114,-28 -85,48 0,0 86,205 131,308 26,60 67,143 33,193 -22,33 -52,53 -83,74 -54,35 -108,57 -162,87 -127,54 -153,162 -127,301 18,98 43,185 96,286 26,49 51,104 98,135 68,46 149,76 230,91 55,10 70,-5 48,-46 -61,-110 -99,-180 -176,-332 -21,-41 -32,-196 156,-232 46,-9 95,-24 148,-53 50,-27 99,-64 118,-125 11,-38 11,-65 -2,-118 -79,-320 -403.0313,-598.9687 -423.0313,-616.9687 z"
   sodipodi:nodetypes="scssssssssssssssss" />&#10;  <path
   id="text2"
   class="fil3"
   d="M1247 1729c-52,0 -91,16 -119,48 -27,32 -41,68 -41,107 0,36 12,70 36,100 17,21 53,50 109,89 38,26 63,46 74,58 2,3 4,5 6,8 35,73 -124,78 -199,-52l-19 0 9 185 18 0c8,-18 18,-28 30,-28 4,0 12,2 23,6 41,15 74,23 99,23 32,0 60,-7 86,-22 26,-15 46,-36 61,-63 14,-28 22,-56 22,-84 0,-32 -9,-60 -26,-85 -17,-26 -52,-57 -106,-93 -44,-30 -74,-53 -90,-68 -33,-61 107,-72 157,26 8,15 14,41 16,51l24 0c0,0 -7,-137 -10,-205l-19 0c-9,13 -15,21 -19,24 -4,3 -9,4 -16,4 -6,0 -14,-3 -24,-8 -26,-14 -53,-20 -81,-20z"
   sodipodi:nodetypes="scsccscccccscsssscccscccccscs" />&#10;  <path
   class="fil4"
   d="M1270 1193c59,0 107,115 111,261 0,1 0,13 0,13 -2,74 -51,133 -111,133 -60,0 -109,-59 -111,-133l0 0c0,-1 0,-1 0,-2 0,-1 0,-2 0,-2 0,-3 0,-6 0,-9 4,-146 52,-261 111,-261z"
   id="path10" />&#10;  <path
   class="fil5"
   d="M1270 1343c40,0 73,72 76,164 0,1 0,8 0,8 -1,46 -35,84 -76,84 -41,0 -75,-37 -76,-84l0 0c0,0 0,-1 0,-1 0,0 0,-1 0,-1 0,-2 0,-4 0,-6 3,-92 36,-164 76,-164z"
   id="path11" />&#10; </g>&#10;</svg>
